# xmcd
#
# Track frame offsets:
#	182
#	10627
#	44005
#	57862
#	77467
#	95052
#	130542
#	143785
#	166242
#	181895
#	199980
#	234680
#	246162
#	290667
#	309827
#	325795
#
# Disc length: 4733
#
# Revision: 5
# Processed by: cddbd v1.5.1PL0 Copyright (c) Steve Scherf et al.
# Submitted via: Grip 2.7
# Normalized: r3:TSWAP
#
DISCID=d6127b10
DTITLE=Misc. Artists - Rockin' The Blues
DYEAR=1900
DGENRE=
TTITLE0=U.P. Wilson with Paul Orta and The King Pins - Enter The Tornado
TTITLE1=U.P. Wilson - Hold On Baby
TTITLE2=J.B. Hutto - Speak My Mind
TTITLE3=Walter Horton - Jukin' With Water
TTITLE4=Memphis Slim - Wish Me Well
TTITLE5=Albert Collins - I've Got A Mind To Travel
TTITLE6=Sonny Boy Williamson - Bye Bye Bird
TTITLE7=Charlie Mussel White - Christo Redemptor
TTITLE8=sonny Boy Williamson - All My Love In Vain
TTITLE9=Muddy Waters - Honey Bee
TTITLE10=Jimi Hendrix - Outside Woman Blues
TTITLE11=Jimi Hendrix - Sunshine Of Your Love
TTITLE12=Luther Allison - The Thrill Is Gone
TTITLE13=Luther Allison - Glory Hallelujah (When I Lay My Burden Down)
TTITLE14=Walter Horton - That Ain't It
TTITLE15=Buddy Guy and Junior Wells - How Can A Woman Be So Mean
EXTD=
EXTT0=
EXTT1=
EXTT2=
EXTT3=
EXTT4=
EXTT5=
EXTT6=
EXTT7=
EXTT8=
EXTT9=
EXTT10=
EXTT11=
EXTT12=
EXTT13=
EXTT14=
EXTT15=
PLAYORDER=
